<svg xmlns="http://www.w3.org/2000/svg" width="512" height="512" viewBox="0 0 512 512"><defs><filter id="a" width="116%" height="116%" x="-8%" y="-8%" filterUnits="objectBoundingBox"><feOffset dx="2" dy="2" in="SourceAlpha" result="shadowOffsetOuter1"/><feGaussianBlur in="shadowOffsetOuter1" result="shadowBlurOuter1" stdDeviation="7.5"/><feColorMatrix in="shadowBlurOuter1" result="shadowMatrixOuter1" values="0 0 0 0 0 0 0 0 0 0 0 0 0 0 0 0 0 0 0.5 0"/><feMerge><feMergeNode in="shadowMatrixOuter1"/><feMergeNode in="SourceGraphic"/></feMerge></filter></defs><g fill="none" fill-rule="evenodd" filter="url(#a)" transform="translate(46 46)"><path fill="#DC493A" d="M420,273.858544 C420,324.675112 414.70894,343.102427 404.773436,361.680205 C394.837932,380.257983 380.257983,394.837932 361.680205,404.773436 C343.102427,414.70894 324.675112,420 273.858544,420 L146.141456,420 C95.3248882,420 76.8975727,414.70894 58.3197949,404.773436 C39.7420171,394.837932 25.1620684,380.257983 15.2265641,361.680205 C5.29105984,343.102427 -1.92813241e-15,324.675112 3.31847994e-15,273.858544 L1.11908663e-14,146.141456 C-6.50221558e-15,95.3248882 5.29105984,76.8975727 15.2265641,58.3197949 C25.1620684,39.7420171 39.7420171,25.1620684 58.3197949,15.2265641 C76.8975727,5.29105984 95.3248882,-7.8461162e-16 146.141456,1.35038336e-15 L273.858544,1.31589629e-14 C324.675112,-7.64573638e-15 343.102427,5.29105984 361.680205,15.2265641 C380.257983,25.1620684 394.837932,39.7420171 404.773436,58.3197949 C414.70894,76.8975727 420,95.3248882 420,146.141456 L420,146.141 Z"/><g fill="#F3F3F3" transform="translate(90 49)"><rect width="238" height="37.818" y="282.182"/><path fill-rule="nonzero" d="M0,256 L0,0 L45.8657031,0 L45.8657031,106.666667 C51.8377999,96.9481481 59.9001305,89.3037037 70.052695,83.7333333 C80.2052595,78.162963 91.8508481,75.3777778 104.989461,75.3777778 C126.966777,75.3777778 143.987253,82.2518519 156.050888,96 C168.114524,109.748148 174.146341,129.896296 174.146341,156.444444 L174.146341,256 L128.638964,256 L128.638964,160.711111 C128.638964,145.540741 125.593195,133.925926 119.501656,125.866667 C113.410117,117.807407 103.795042,113.777778 90.6564288,113.777778 C77.7566998,113.777778 67.0666466,118.281481 58.5862692,127.288889 C50.1058918,136.296296 45.8657031,148.859259 45.8657031,164.977778 L45.8657031,256 L0,256 Z" transform="translate(31.927)"/></g></g></svg>